# xmcd CD database file
#
# Track frame offsets:
#	150
#	16725
#	31197
#	55900
#	72385
#	88160
#
# Disc length: 1316 seconds
#
# Revision: 0
# Processed by: cddbd v1.5.1PL2 Copyright (c) Steve Scherf et al.
# Submitted via: CDex 1.50
#
DISCID=45052206
DTITLE=Jake Shimabukuro - Peace, Love and Ukulele
DYEAR=2005
DGENRE=Instrumental Pop
TTITLE0=Blue Roses Family
TTITLE1=Ave Maria
TTITLE2=The Beatles Medley （Here, there and Everywhere〜Yesterday〜Let It Be）
TTITLE3=Misty
TTITLE4=Crosscurrent
TTITLE5=Floaters
EXTD=YEAR: 2005
EXTT0=
EXTT1=
EXTT2=
EXTT3=
EXTT4=
EXTT5=
PLAYORDER=
